<svg width="379" height="155" viewBox="0 0 379 155" fill="none" xmlns="http://www.w3.org/2000/svg">
<path d="M39.2213 52.1113L7.60565 53.3535L8.05944 48.791L20.23 48.3128L22.9043 21.4254L27.8355 21.2317L26.7963 31.6801L38.6871 31.213L38.2333 35.7754L26.3425 36.2426L25.1612 48.119L39.675 47.5488L39.2213 52.1113ZM79.0978 50.8221L56.1555 51.7235L56.5954 47.3003L68.5562 46.8304C70.4504 41.795 72.4656 35.1937 73.7543 29.5923L78.4905 30.3082C76.7894 36.2033 74.8193 42.3518 73.1027 46.6517L79.5377 46.3989L79.0978 50.8221ZM54.4321 52.5891L49.9905 52.7636L51.7675 34.8968C50.7405 36.1166 49.6957 37.1638 48.7487 37.9295L48.0435 32.0596C51.2373 29.0199 54.1748 25.0537 56.2717 19.7328L60.7773 20.6659C59.7937 23.5493 58.3625 26.3809 56.7911 28.8711L54.4321 52.5891ZM80.4158 28.4633L59.2222 29.296L59.6587 24.9076L67.6325 24.5943L68.1625 19.2656L72.9188 19.0788L72.3888 24.4075L80.8523 24.0749L80.4158 28.4633ZM66.739 44.7855L62.1797 46.1442C61.916 41.0895 61.3127 35.5972 60.452 31.6414L65.3296 30.2356C66.0119 34.233 66.5173 39.6598 66.739 44.7855ZM168.404 47.6948L166.221 43.3747C174.456 42.1838 179.647 38.6842 180.319 31.9275C180.866 26.4246 178.694 22.3469 173.129 21.5595C170.359 32.9433 167.078 40.0106 164.857 42.7345C163.194 44.7426 161.428 45.6792 159.575 45.752C156.147 45.8867 151.948 42.9294 152.731 35.0583C153.697 25.3412 162.21 17.8602 171.547 17.4933C180.78 17.1305 186.269 22.535 185.345 31.8341C184.742 37.8942 180.881 45.5394 168.404 47.6948ZM167.9 21.9384C162.873 23.4543 158.041 28.6051 157.4 35.0483C157.244 36.6155 157.521 40.8371 159.794 40.7478C160.458 40.7217 161.105 40.1759 161.513 39.5701C164.597 34.8349 166.86 27.1484 167.9 21.9384ZM35.9642 96.4171L32.8594 101.014C28.4362 98.5516 25.2878 94.1306 24.3527 89.1717C22.0703 94.257 17.8567 98.7938 13.0297 101.793L10.8712 97.5765C18.233 93.6099 22.5242 86.1906 23.4193 78.5926L23.4608 78.1746L27.9024 78.0001L27.8782 78.2439C27.7081 79.6036 27.3531 81.4215 26.9524 82.9984C27.6638 88.1049 30.1068 93.6637 35.9642 96.4171ZM33.3659 85.7647L29.1809 83.7088C30.0505 82.3216 31.5441 78.8631 32.1958 76.5132L21.8788 76.9185C20.5175 79.7474 18.9602 82.4451 17.3708 84.4157L13.678 81.265C16.9549 77.3895 19.4052 72.367 20.4999 68.716L25.0925 69.1253C24.7472 70.1449 24.36 71.2356 23.896 72.3987L37.5354 71.8628C37.0114 76.0811 35.7192 81.7173 33.3659 85.7647ZM5.51159 99.6257L2.69557 95.3652C6.02574 92.3549 8.54047 88.7869 10.7398 84.5374L14.4319 86.9943C11.824 91.8495 9.45989 95.6545 5.51159 99.6257ZM14.7187 76.055L11.4633 80.4153C9.96505 79.0171 6.55961 76.4796 4.72583 75.3028L8.25411 71.0011C10.0495 72.2142 12.762 74.3626 14.7187 76.055ZM73.6006 96.9852L50.4485 97.8948L50.2094 100.298L45.3132 100.49L47.3812 79.6979L43.2195 79.8615L43.6455 75.5776L47.8073 75.4141L48.4897 68.5529L53.386 68.3606L52.7035 75.2217L56.8304 75.0596L57.6098 67.2232L62.4011 67.035L61.6217 74.8713L66.343 74.6858L67.1224 66.8495L71.9137 66.6612L71.1343 74.4976L76.765 74.2763L76.3389 78.5602L70.7082 78.7814L69.669 89.2299L55.3651 89.7919L56.4043 79.3434L52.2775 79.5056L50.8884 93.4717L74.0405 92.562L73.6006 96.9852ZM65.3107 85.0646L65.9169 78.9697L61.1956 79.1552L60.5894 85.2501L65.3107 85.0646ZM111.426 87.2423L114.354 91.4291C111.939 96.1033 109.762 98.0276 107.873 98.1018C103.641 98.268 99.9327 89.6713 99.2849 81.4748L92.4834 82.6093L92.423 77.9629L98.9796 76.838C98.8361 73.0275 98.9339 69.2423 99.2592 65.6215L103.841 65.4415C103.61 68.8157 103.567 72.3907 103.69 76.0632L114.569 74.2134L114.664 78.8584L103.964 80.6665C104.523 87.6523 107.147 92.4408 108.371 92.3927C109.141 92.3625 110.014 90.9405 111.426 87.2423ZM89.4107 98.7925L84.8992 98.9697L86.6555 81.3118C85.5792 82.3255 84.5553 83.1636 83.3146 84.0797L82.4069 78.4952C85.5383 76.0825 89.4928 71.3478 91.7749 65.9156L96.2282 67.0242C95.0979 69.9828 93.4326 73.0664 91.7212 75.5621L89.4107 98.7925ZM114.502 70.3305L111.239 73.7198C109.747 71.905 107.724 70.1805 105.68 68.665L109.108 65.7202C111.127 67.1327 113.242 68.9923 114.502 70.3305ZM151.802 95.6473L120.505 96.8422L120.938 92.4887L134.157 91.9693L134.469 88.8348L123.173 89.2786L123.609 84.8903L134.906 84.4464L135.11 82.3916L133.396 82.4589L133.954 76.8516L129.862 77.0123C128.784 80.1423 126.661 82.9317 123.85 84.5686L121.241 81.0284C123.098 80.2269 124.544 78.9906 125.456 77.1855L122.273 77.3105L122.675 73.2705L126.452 73.122L126.816 69.4651L123.738 69.586L124.143 65.5111L142.329 64.7966L141.924 68.8715L139.056 68.9842L138.692 72.6411L142.26 72.501L141.858 76.541L138.291 76.6812L137.792 81.6964L139.785 81.6181L139.522 84.2651L151.028 83.813L150.592 88.2013L139.086 88.6534L138.774 91.7879L152.238 91.2589L151.802 95.6473ZM145.585 82.8473L144.185 78.3576L145.479 78.3068C148.942 78.1708 148.994 77.9952 149.136 76.5673L150.421 63.646L154.653 63.4798L153.402 76.0527C152.883 81.277 152.391 82.3718 145.585 82.8473ZM147.314 76.6736L143.047 76.8412L144.232 64.93L148.499 64.7623L147.314 76.6736ZM134.356 72.8115L134.72 69.1545L131.082 69.2975L130.684 72.9558L134.356 72.8115ZM241.199 88.3534L237.569 92.9713C230.7 89.5291 227.09 85.1957 225.353 78.8459C222.341 85.3129 217.963 90.0989 210.22 94.0458L207.485 89.678C218.895 84.581 223.199 75.9817 223.82 69.7475L224.72 60.6921L229.616 60.4998L228.543 71.2965C229 77.9047 231.794 84.4905 241.199 88.3534ZM268.524 91.7204L267.166 87.1597L268.95 87.0896C272.202 86.9618 272.636 86.806 272.833 84.8208L273.8 75.1038C271.164 79.8908 267.335 84.4124 263.568 87.6133L260.7 83.8752C265.547 80.3196 270.417 74.7857 273.842 68.7187L265.414 69.0499L265.85 64.6616L274.873 64.307L275.431 58.6997L279.838 58.5266L279.28 64.1339L282.323 64.0144L281.886 68.4027L278.843 68.5222L277.323 83.8118C276.689 90.1854 276.06 91.2508 268.524 91.7204ZM257.469 92.1894L253.062 92.3626L254.777 75.1226C253.517 78.3291 251.765 81.9365 249.658 84.2049L247.674 79.2872C250.634 76.8465 253.082 73.2465 254.964 69.3911L249.788 69.5945L250.217 65.2758L255.778 65.0573L256.336 59.45L260.742 59.2768L260.185 64.8842L264.836 64.7014L264.407 69.0201L260.315 69.1809C261.696 72.1101 263.527 74.3625 264.903 75.5921L262.284 80.5519C261.034 78.7623 260.014 76.0617 259.367 73.1036L257.469 92.1894ZM319.698 83.6733L315.67 88.4457C313.023 85.2886 309.814 80.419 306.96 76.1946C302.231 69.0951 301.136 68.2015 300.192 68.2386C299.562 68.2633 298.605 69.1335 297.787 70.3452C295.325 74.0846 292.787 78.2433 290.178 82.0578L286.739 78.0993C289.352 74.9437 291.828 71.065 295.084 66.7046C296.572 64.7034 298.526 63.2737 300.589 63.1926C302.442 63.1198 304.182 64.1963 305.677 65.9762C307.207 67.7548 309.137 70.4196 311.224 73.2517C314.053 77.0261 317.1 81.0694 319.698 83.6733ZM337.359 82.9794C337.054 86.0443 334.325 88.6147 331.212 88.737C328.135 88.8579 325.863 86.484 326.168 83.4191C326.472 80.3543 329.24 77.7477 332.317 77.6268C335.43 77.5045 337.664 79.9146 337.359 82.9794ZM334.561 83.0894C334.713 81.5569 333.614 80.3512 332.04 80.413C330.502 80.4735 329.118 81.7768 328.965 83.3092C328.813 84.8417 329.947 86.046 331.486 85.9855C333.06 85.9237 334.409 84.6218 334.561 83.0894Z" fill="#342525"/>
<path d="M100.277 49.4349L95.0344 49.6061L97.5077 24.7388L93.0312 24.9147L93.5023 20.1781L103.225 19.7961L100.277 49.4349ZM123.174 35.2482C117.788 35.4598 116.99 30.5302 117.339 27.0126C117.696 23.4253 119.451 18.3954 124.871 18.1824C130.327 17.968 131.056 22.9003 130.699 26.4877C130.349 30.0053 128.595 35.0352 123.174 35.2482ZM137.484 48.6321C132.064 48.8451 131.338 43.8779 131.688 40.3603C132.042 36.8078 133.761 31.7793 139.182 31.5663C144.638 31.352 145.366 36.2843 145.013 39.8368C144.66 43.3892 142.905 48.4191 137.484 48.6321ZM121.812 48.5887L117.895 48.7426L129.75 32.8736L140.463 18.333L144.205 18.186L132.291 34.3002L121.812 48.5887ZM137.858 44.8707C140.272 44.7759 140.744 41.7738 140.921 39.9975C141.101 38.1865 141.231 35.1285 138.818 35.2233C136.405 35.3181 135.96 38.3885 135.78 40.1995C135.603 41.9758 135.445 44.9655 137.858 44.8707ZM123.545 31.5216C125.958 31.4267 126.399 28.3912 126.579 26.5801C126.759 24.7691 126.917 21.7793 124.504 21.8742C122.091 21.969 121.65 25.0045 121.473 26.7808C121.293 28.5918 121.132 31.6164 123.545 31.5216ZM185.827 93.6513L180.301 93.8684L178.409 86.9696L167.463 87.3997L164.178 94.5018L158.652 94.7189L172.827 64.6391L177.583 64.4522L185.827 93.6513ZM177.331 82.7448L176.72 79.7853C176.158 77.0321 174.619 70.4316 174.619 70.4316C174.619 70.4316 171.79 77.169 170.683 79.8837L169.392 83.0567L177.331 82.7448ZM199.198 93.1259L193.882 93.3348L196.826 63.7308L202.142 63.522L199.198 93.1259Z" fill="#475499"/>
<path d="M17.0025 144.022L13.845 144.146L12.7975 140.208L6.54232 140.453L4.63209 144.508L1.47453 144.632L9.71591 127.459L12.4338 127.352L17.0025 144.022ZM12.2021 137.796L11.8671 136.106C11.5592 134.534 10.7122 130.766 10.7122 130.766C10.7122 130.766 9.06322 134.612 8.41834 136.162L7.66563 137.974L12.2021 137.796ZM23.0446 143.785L20.0069 143.904L21.8311 127.002L24.8688 126.883L23.0446 143.785ZM45.8044 127.249C45.8817 126.533 45.3465 125.96 44.6271 125.988C43.9076 126.016 43.2437 126.636 43.1664 127.352C43.0892 128.068 43.6243 128.641 44.3438 128.613C45.0632 128.584 45.7271 127.964 45.8044 127.249ZM30.3652 143.814L28.4816 141.354C37.4751 139.337 40.543 134.88 41.7876 129.802C38.144 130.005 28.9204 130.466 28.9204 130.466L29.2208 127.682C29.2208 127.682 36.917 127.36 41.6734 127.173C41.9499 125.717 43.2935 124.516 44.7923 124.457C46.3711 124.395 47.5128 125.617 47.3432 127.188C47.1994 128.52 46.1599 129.67 44.8887 130.017C43.0449 136.96 38.3659 141.777 30.3652 143.814ZM64.2057 141.871L61.2101 141.969L61.311 141.034L51.6784 141.412L51.5711 142.407L48.5535 142.525L50.2317 126.976L65.8796 126.361L64.2057 141.871ZM61.5922 138.429L62.603 129.064L52.9704 129.442L51.9596 138.808L61.5922 138.429ZM88.7468 126.155L87.0852 126.617C85.5336 132.142 82.3955 139.829 71.108 142.451L69.113 139.916C78.2349 138.369 81.5392 133.567 83.4339 128.918L77.3985 129.155C75.7371 131.458 73.569 133.662 71.0763 135.185L68.7857 133.177C73.0679 130.929 75.9909 126.894 77.1636 123.957L80.1347 124.454C79.8419 125.139 79.487 125.846 79.0721 126.555C80.6709 126.492 82.2918 126.409 83.8906 126.346C83.6781 125.364 83.283 124.232 82.9649 123.492L84.6536 123.148C84.9561 123.849 85.4918 125.155 85.7313 126.254L86.9304 126.207C86.6979 125.226 86.2693 124.035 85.8727 123.1L87.5172 122.798C87.9559 123.711 88.5629 125.093 88.7468 126.155ZM93.2531 141.561L91.5065 138.937C99.4627 138.05 102.769 135.069 103.675 131.291C100.053 131.473 91.327 131.935 90.7874 131.956L91.0728 129.311L107.36 128.671C106.472 135.795 101.889 140.093 93.2531 141.561ZM105.957 126.37L92.9869 126.88L93.2638 124.315L106.236 123.785L105.957 126.37ZM127.109 137.261L125.896 140.199C121.652 138.782 115.731 137.767 110.715 137.232L112.191 134.619C116.623 135.039 122.191 135.811 127.109 137.261ZM128.017 124.612L126.955 127.446C123.001 126.651 117.338 126.2 113.241 126.183L114.352 123.625C118.154 123.614 124.13 123.934 128.017 124.612ZM125.953 130.455L124.793 133.273C121.592 132.33 116.372 131.644 113.045 131.497L114.357 128.931C117.6 129.12 122.563 129.599 125.953 130.455ZM132.933 139.487L131.448 136.833C140.545 135.149 144.609 131.049 147.006 123.965L149.45 125.473C147.722 130.234 144.607 136.791 132.933 139.487ZM139.956 126.777L137.643 129.402C136.225 127.795 133.609 126.214 132.208 125.557L134.54 123.307C135.757 123.833 138.563 125.307 139.956 126.777ZM170.087 122.959L168.426 123.421C166.874 128.947 163.736 136.634 152.448 139.255L150.453 136.72C159.575 135.173 162.88 130.371 164.774 125.722L158.739 125.96C157.077 128.262 154.909 130.466 152.417 131.99L150.126 129.981C154.408 127.734 157.331 123.698 158.504 120.761L161.475 121.258C161.182 121.943 160.827 122.65 160.412 123.359C162.011 123.297 163.632 123.213 165.231 123.15C165.018 122.169 164.623 121.036 164.305 120.296L165.994 119.952C166.296 120.653 166.832 121.959 167.072 123.058L168.271 123.011C168.038 122.03 167.61 120.839 167.213 119.904L168.858 119.602C169.296 120.515 169.903 121.897 170.087 122.959ZM187.511 134.551L185.053 137.222C183.357 134.873 181.683 133.236 180.044 132.013C177.121 134.939 173.717 136.796 170.836 137.859L169.123 135.471C176.863 133.088 180.596 128.19 181.929 124.316L172.468 124.767L172.762 122.043L186.072 121.52C185.174 124.862 183.705 127.592 181.968 129.858C183.757 130.976 185.867 132.636 187.511 134.551ZM191.635 137.715L189.64 135.18C198.762 133.634 202.067 128.831 203.961 124.183L197.926 124.42C196.264 126.723 194.096 128.926 191.604 130.45L189.313 128.441C193.595 126.194 196.518 122.159 197.691 119.222L200.662 119.719C200.369 120.403 200.014 121.11 199.599 121.82C202.02 121.705 206.618 121.504 207.717 121.461C206.224 127.004 203.209 135.023 191.635 137.715ZM227.014 128.564L209.587 129.248L209.883 126.504L227.31 125.82L227.014 128.564ZM235.713 135.152L237.507 118.528L240.385 118.415C240.385 118.415 239.332 127.802 238.939 130.887C241.386 129.603 243.425 126.572 244.744 123.57L246.609 125.834C244.877 129.347 241.262 134.261 235.713 135.152ZM229.288 135.682L226.602 134.203C230.699 131.092 231.785 126.376 232.268 121.902C232.381 120.849 232.475 119.795 232.545 118.783L235.438 118.709L235.329 119.723C234.545 126.981 233.583 131.474 229.288 135.682Z" fill="#342525"/>
<g clip-path="url(#clip0_5268_8064)">
<path d="M269.777 118.395C272.127 118.814 273.297 121.174 272.306 123.49C272.13 123.887 271.855 124.093 271.483 124.108C271.334 124.114 271.217 124.104 271.13 124.079C270.335 123.88 269.551 123.761 268.776 123.727C268.001 123.693 267.174 123.692 266.295 123.726C265.774 123.747 265.393 123.802 265.153 123.891C264.913 123.98 264.779 124.162 264.749 124.439C264.722 124.685 264.83 124.852 265.074 124.936C265.317 125.02 265.676 125.053 266.154 125.035C268.745 124.933 270.642 125.17 271.841 125.744C273.04 126.319 273.553 127.411 273.379 129.023C273.249 130.228 272.718 131.185 271.789 131.894C270.859 132.604 269.578 133.124 267.949 133.455C266.317 133.787 264.273 134.001 261.816 134.097C259.744 134.179 257.933 134.146 256.383 133.999C255.84 133.948 255.309 133.857 254.792 133.727C252.432 133.128 251.339 130.665 252.379 128.286L252.446 128.131C252.623 127.734 252.882 127.529 253.225 127.515C253.388 127.509 253.536 127.532 253.662 127.586C255.167 128.077 256.933 128.281 258.959 128.201C259.421 128.183 259.765 128.123 259.991 128.019C260.216 127.917 260.345 127.727 260.375 127.451C260.405 127.175 260.309 126.999 260.087 126.92C259.865 126.843 259.539 126.811 259.107 126.828C256.932 126.913 255.205 126.66 253.927 126.067C252.648 125.473 252.077 124.538 252.215 123.261C252.345 122.056 252.819 121.097 253.638 120.386C254.456 119.675 255.664 119.143 257.26 118.79C258.856 118.439 260.95 118.212 263.542 118.11C264.87 118.058 266.27 118.072 267.741 118.156C268.431 118.195 269.111 118.277 269.779 118.397L269.777 118.395Z" fill="#332728"/>
<path d="M304.856 116.775C306.839 116.892 308.845 116.887 310.864 116.76L316.731 116.39C319.143 116.295 321.066 116.467 322.494 116.904C323.922 117.341 324.935 118.1 325.531 119.178C326.127 120.258 326.321 121.745 326.117 123.638C325.912 125.532 325.392 127.048 324.559 128.183C323.724 129.319 322.539 130.162 321.003 130.716C319.468 131.269 317.492 131.594 315.079 131.689L302.83 132.171C302.007 132.203 301.454 131.512 301.662 130.711C302.161 128.785 302.495 126.843 302.66 124.91L303.234 118.143C303.318 117.364 304.071 116.729 304.856 116.775ZM313.375 126.447C313.689 126.434 313.968 126.383 314.215 126.294C314.461 126.204 314.7 125.984 314.93 125.634C315.161 125.284 315.315 124.759 315.39 124.06C315.466 123.361 315.426 122.843 315.268 122.508C315.112 122.173 314.918 121.971 314.689 121.9C314.458 121.829 314.187 121.8 313.875 121.812C313.677 121.82 313.501 121.982 313.48 122.176L313.055 126.11C313.034 126.303 313.177 126.454 313.375 126.447Z" fill="#332728"/>
<path d="M288.523 131.228C289.023 129.299 289.348 127.355 289.49 125.421L289.757 121.794C289.836 121.066 290.503 120.452 291.245 120.422L299.168 120.111C299.912 120.082 300.45 120.649 300.371 121.377L299.333 130.999C299.254 131.727 298.587 132.342 297.844 132.371L289.691 132.691C288.868 132.723 288.315 132.031 288.523 131.228Z" fill="#332728"/>
<path d="M299.983 114.939C300.478 114.919 300.838 115.295 300.786 115.778L300.609 118.102C300.557 118.585 300.113 118.992 299.617 119.012L290.797 119.358C290.302 119.378 289.942 119.002 289.994 118.519L290.225 116.379C290.312 115.572 291.118 114.927 291.921 115.022C293.839 115.246 295.805 115.278 297.786 115.117L299.981 114.939L299.983 114.939Z" fill="#332728"/>
<path d="M275.382 131.74C275.882 129.811 276.207 127.867 276.35 125.933L276.617 122.306C276.695 121.578 277.362 120.963 278.105 120.934L286.027 120.623C286.771 120.594 287.309 121.161 287.23 121.889L286.192 131.51C286.113 132.239 285.446 132.853 284.704 132.882L276.55 133.203C275.727 133.235 275.174 132.543 275.382 131.74Z" fill="#332728"/>
<path d="M286.959 115.446C287.455 115.427 287.815 115.803 287.763 116.286L287.586 118.61C287.534 119.093 287.089 119.5 286.594 119.52L277.774 119.866C277.278 119.886 276.918 119.51 276.971 119.027L277.202 116.887C277.289 116.08 278.094 115.435 278.898 115.53C280.816 115.754 282.781 115.786 284.763 115.625L286.958 115.446L286.959 115.446Z" fill="#332728"/>
</g>
<defs>
<clipPath id="clip0_5268_8064">
<rect width="74.3144" height="18.0897" fill="white" transform="matrix(0.999229 -0.0392598 -0.107305 0.994226 252.941 116.535)"/>
</clipPath>
</defs>
</svg>
